<?xml version="1.0" encoding="utf-8"?>
<!-- Generator: Adobe Illustrator 15.1.0, SVG Export Plug-In  -->
<!DOCTYPE svg PUBLIC "-//W3C//DTD SVG 1.1//EN" "http://www.w3.org/Graphics/SVG/1.1/DTD/svg11.dtd" [
	<!ENTITY ns_flows "http://ns.adobe.com/Flows/1.0/">
]>
<svg version="1.1"
	 xmlns="http://www.w3.org/2000/svg" xmlns:xlink="http://www.w3.org/1999/xlink" xmlns:a="http://ns.adobe.com/AdobeSVGViewerExtensions/3.0/"
	 x="0px" y="0px" width="524px" height="484px" viewBox="-0.832 -0.994 524 484"
	 overflow="visible" enable-background="new -0.832 -0.994 524 484" xml:space="preserve">
<defs>
</defs>
<path fill="#B2E1EF" d="M480.769,307.711c2.844-0.747,11.754-5.302,14.197-7.114c2.407-1.809-1.678-18.312-1.678-18.312
	s12.211-22.567,9.865-22.881c-2.359-0.312-4.688-0.414-7.021-0.475c-4.65-0.18-9.276,0.14-13.747-0.474
	c-8.376-1.149-1.965-1.878,5.597-14.191c-0.655,1.068,2.006,5.775,2.006,5.775s6.637-10.364,5.747-24.575
	c-0.105-1.672-0.355-3.3-0.797-4.924c0.183,0.105,5.229,3.002,5.229,3.002l-0.23-4.069c0,0-0.768-8.813-7.248-15.276
	c-6.477-6.461-19.142-11.095-19.142-11.095s5.446,11.28-6.933,29.508c0.049-0.071-0.097-0.156-0.143-0.228
	c-0.735-1.077-0.546-5.021-0.546-5.021s-21.603,22.113-43.791,22.229c1.655-0.18,4.191-4.34,4.191-4.34
	c-10.146,0.558-16.349-7.725-27.28-17.86c-10.916-10.118-9.717,35.3-8.525,35.296c0.314,0.004,2.82,0.212,6.544,0.24l-18.202,42.858
	l0.131,0.038l-1.129,11.871c0,0,24.839-2.145,32.86,8.739c0.841-1.786-0.765-7.087-0.765-7.087s13.455,20.472,33.336,26.578
	c-0.408-0.775-0.748-1.732-1.055-2.75c1.578,1.364,3.264,2.602,5.099,3.551c4.53,2.379,13.401,6.673,18.303,6.897
	c4.922,0.156-8.868-10.14-4.528-12.321c3.207-1.615,5.852-3.246,7.227-5.307c1.159-1.743,5.843,3.772,8.209,3.032
	c3.197-0.998,6.033-3.115,7.987-5.717c0.966-1.264-9.771-8.194-9.416-9.881c0.37-1.669,0.267-3.368-0.071-4.94
	C474.328,305.677,478.907,308.193,480.769,307.711"/>
<path fill="#4E4D50" d="M354.381,76.17c0,0,10.683,2.547,21.378,0c10.688-2.541,20.865-10.184,20.865-10.184
	s-5.093,17.821-18.835,31.563c-13.736,13.74-31.049,12.213-41.739,10.69C336.05,108.239,348.783,83.807,354.381,76.17"/>
<path fill="#737F84" d="M354.381,76.17c0,0,10.683,2.547,21.378,0c10.688-2.541,20.865-10.184,20.865-10.184
	s-10.831,21.33-48.856,26.123L354.381,76.17z"/>
<path fill="#64C2DE" d="M279.622,232.828c0,0,19.604,20.824,21.031,68.204c1.364,45.126-20.696,70.576-26.296,76.688l-11.702-10.181
	l17.813-39.701L279.622,232.828z"/>
<path fill="#EAF6FB" d="M381.228,347.8c-7.633,8.648-21.88,13.74-21.88,13.74c3.56-5.605,4.065-14.761,4.065-14.761
	s-8.142,5.093-30.539,15.271c-22.397,10.181-38.177,26.463-38.177,26.463c-11.707-12.722-27.988-21.887-27.988-21.887
	s30.54-30.026,32.577-69.729c2.035-39.701-19.342-64.131-19.342-64.131c46.825-118.083,88.439-172.154,88.439-172.154
	c4.136-4.3,10.355-12.083,10.355-12.083c-3.546-0.938-7.067-1.948-10.558-2.988c-3.003-0.933-6.01-1.981-8.852-3.158
	c0.294-1.043,0.673-2.145,1.099-3.219c0.612-1.498,1.257-3.002,1.935-4.496c1.361-2.98,2.815-5.957,4.32-8.872l1.211-2.347
	l-2.651-0.464c-10.437-1.824-21.016-1.664-31.399-0.59v-6.398c-11.123,0.171-19.974,2.931-26.648,6.187
	c0.237-0.526,0.468-1.055,0.716-1.576c1.823-3.813,3.937-7.631,6.179-11.144l3.347-5.249l-6.213,0.509
	c-12.788,1.047-25.454,3.402-37.762,6.953c-6.153,1.769-12.226,3.812-18.209,6.11c-4.136,1.614-8.18,3.303-12.219,5.198
	c0.307-1.956,0.751-3.965,1.236-5.923c0.983-3.909,2.198-7.896,3.556-11.666L249.767,0l-5.629,0.804
	c-17.859,2.548-35.333,8.605-50.731,18.095c-1.487-5.37-2.254-11.164-0.803-15.815c-9.982,3.992-26.281,9.456-28.006,32.775
	c-0.199,2.651-0.278,5.153-0.3,7.538c-0.806,0.914-1.579,1.857-2.352,2.786c-6.876-9.064-11.169-22.413-11.169-22.413l-6.904,32.817
	l-0.193,0.765l-9.148-11.705l-2.736-3.506l-1.379,4.135c-1.866,5.615-3.339,11.209-4.533,16.945
	c-0.852,4.253-1.539,8.563-1.812,12.949l-6.708-7.585l-1.721-1.95l-0.788,2.4c-2.974,9.075-5.564,18.218-7.686,27.498
	c-1.04,4.645-1.989,9.317-2.592,14.04c-0.584,4.706-0.995,9.503-0.423,14.224c-0.273-4.742,0.439-9.449,1.305-14.084
	c0.907-4.639,2.003-9.232,3.27-13.785c2.3-8.26,5.036-16.413,8.02-24.429l7.624,9.417l3.046,3.775l0.113-4.929
	c0.121-5.547,1.124-11.141,2.422-16.641c0.973-4.031,2.191-8.034,3.502-11.973l8.623,11.608l-4.251,17.006
	c0,0,3.12-1.662,7.413-4.21L63.625,245.999c-9.668,66.675,5.088,89.577,5.088,89.577c3.561-11.192,9.675-16.792,9.675-16.792
	s4.579,27.482,21.378,56.494c16.791,29.018,43.769,48.866,43.769,48.866c-3.564-9.161-2.542-18.324-2.542-18.324
	c12.21,19.341,59.046,40.208,71.756,46.83c12.732,6.61,22.4,14.247,22.4,14.247c0.507-10.69-6.104-20.869-6.104-20.869
	s17.302,13.742,26.97,20.869c9.675,7.128,12.729,11.197,25.45,11.197h42.761c4.571-5.6,13.741-23.92,19.342-35.12
	c5.589-11.196,12.209-22.903,12.209-22.903c-8.143,3.562-17.305,9.163-17.305,9.163c3.055-9.163,15.274-27.489,26.98-43.775
	C377.154,369.173,381.228,347.8,381.228,347.8"/>
<path fill="#64C2DE" d="M157.059,441.446c0,0,11.371,0.853,21.549-5.767l-86.015-74.31c0,0-11.196,17.813-18.832,27.482
	c-3.491,3.895-7.882,6.91-12.764,8.205c-4.886,1.319-10.036,1.058-15.088,0.356l-4.085-0.563l2.793,3.327
	c2.387,2.844,4.47,6.285,5.717,9.814c0.621,1.772,1.039,3.596,1.229,5.406l0.376,5.934l0.546,12.122l0.303,6.122
	c0.164,2.111,0.247,4.01,0.76,6.502l4.422,1.018l1.223-0.546c0.424-0.883,1.011-1.941,1.591-2.874
	c0.592-0.948,1.235-1.859,1.912-2.71c0.307-0.384,0.622-0.755,0.935-1.11c0.335,1.57,0.643,3.153,0.926,4.718
	c0.281,1.603,0.527,3.208,0.73,4.813l0.16,1.277l0.236,1.396c0.161,0.901,0.351,1.79,0.565,2.663
	c0.871,3.504,2.074,6.855,3.571,10.108c1.554,3.248,3.187,6.404,6.085,9.409l2.119,2.202l2.464-1.943
	c0.24-0.189,0.666-0.496,1.028-0.737c0.384-0.247,0.765-0.481,1.159-0.702c0.015-0.011,0.034-0.017,0.061-0.027
	c0.91,1.316,1.859,2.615,3.017,3.989c1.955,2.255,4.663,4.213,7.739,5.065c1.517,0.445,3.067,0.646,4.561,0.663l3.805-0.038
	l7.47-0.112c9.961-0.123,19.921-0.307,29.877-0.59c9.963-0.217,19.921-0.591,29.882-0.995c9.955-0.517,19.923-0.848,29.884-1.563
	C198.97,479.452,193.704,455.362,157.059,441.446"/>
<path fill="#ECF8FF" d="M221.545,26.482c0,0,27.283-16.412,42.584-19.627c-1.773,13.866-0.219,28.726-0.219,28.726L221.545,26.482z"
	/>
<path fill="#D5EEF7" d="M380.844,347.8c-5.591,17.649-28.33,35.282-28.33,35.282c0.68-4.411,0.872-10.959,0.872-10.959
	c-2.425,2.155-4.795,4.262-6.979,6.209c-9.194,8.171-20.705,21.717-20.705,21.717c-1.02-4.07-1.02-13.229-1.02-13.229
	c-10.17,6.613-26.97,24.938-26.97,24.938s-14.76-11.71-22.396-19.854c-14.256-11.704-37.664-21.882-62.1-31.558
	c-24.11-9.549-45.81-22.39-45.81-22.39c-0.505,6.107,0,15.263,0,15.263c-22.903-23.915-29.524-62.602-29.524-62.602
	c-3.56,5.096-7.12,14.251-7.12,14.251c-8.655-18.829-11.196-58.87-11.196-58.87s-0.161-35.428,4.159-56.435
	c6.619-26.196,35.856-59.927,42.361-68.023c16.555-15.309,36.502-20.636,36.502-20.636l-16.509-2.129
	c20.429-21.614,41.399-39.944,46.735-44.538c0.843-0.724-22.886-2.408-22.886-2.408c4.468-13.672,7.539-19.422,15.113-29.789
	C233.247,10.818,249.358,0,249.358,0c-0.212,0.022-0.415,0.057-0.628,0.082L248.881,0c-1.756,0.249-3.502,0.504-5.25,0.764
	c-0.261,0.04-0.529,0.072-0.792,0.115c-15.741,2.361-35.774,9.604-49.432,18.02c-1.487-5.37-2.254-11.164-0.803-15.815
	c-9.983,3.992-26.281,9.456-28.01,32.775c-0.198,2.651-0.279,5.153-0.296,7.538c-0.804,0.914-1.571,1.857-2.357,2.786
	c-6.871-9.064-11.164-22.413-11.164-22.413l-6.905,32.817l-0.187,0.765l-9.153-11.705l-2.736-3.506l-1.374,4.135
	c-1.871,5.615-3.348,11.209-4.538,16.945c-0.852,4.253-1.544,8.563-1.812,12.949l-6.711-7.585l-1.718-1.95l-0.788,2.4
	c-2.974,9.075-5.564,18.218-7.686,27.498c-1.04,4.645-1.993,9.317-2.593,14.04c-0.123,0.976-0.227,1.958-0.325,2.937
	c-0.233,1.355-0.469,2.713-0.673,4.096c-4.151-2.351-6.921-6.336-8.677-10.553c-1.721-4.238-2.586-8.914-2.677-13.382l-0.189-9.524
	l-2.408,9.289c-4.028,15.517-6.123,31.519-6.988,47.537c-0.453,8.014-0.491,16.049-0.266,24.076
	c0.106,3.449,0.259,6.883,0.477,10.314c-2.13-3.779-4.162-7.67-6.131-11.523l-4.854-9.513l-1.624,10.507
	c-0.906,5.854-1.158,11.644-1.165,17.398c0.007,5.753,0.265,11.469,0.719,17.149c0.402,4.803,0.935,9.581,1.536,14.348
	c-1.494-3.662-18.079,57.738-17.403,72.729c0.367,8.614,1.32,17.234,3.093,25.751c0.879,4.252,1.941,8.485,3.253,12.669
	c1.361,4.231,2.747,8.217,4.991,12.514l3.738,7.152l2.719-7.886c0.991-2.861,2.248-5.615,3.768-8.188
	c0.095-0.157,0.208-0.294,0.301-0.45c1.781,7.783,4.098,15.284,6.868,22.749c3.785,10.121,8.336,19.943,13.837,29.367
	c5.647,9.396,12.348,18.017,19.643,26.022c7.383,8.014,32.527,23.712,32.527,23.712s-1.122-8.808-1.317-9.419
	c3.623,3.065,7.385,5.819,11.245,8.356c8.098,5.323,16.467,9.958,24.924,14.335c8.423,4.397,17.109,8.362,25.545,12.323
	c8.225,3.924,16.219,8.82,23.617,14.077l5.336,3.793l0.114-6.282c0.08-4.188-0.754-8.192-2.023-11.92
	c-0.05-0.146-0.126-0.282-0.179-0.429c5.477,3.979,10.977,7.927,16.551,11.794c4.416,2.838,8.429,6.059,13.135,8.738
	c4.767,2.695,10.307,3.181,15.468,2.856h42.761c4.578-5.6,13.744-23.92,19.339-35.12c5.603-11.196,12.219-22.903,12.219-22.903
	c-8.142,3.562-17.312,9.163-17.312,9.163c3.055-9.163,15.274-27.489,26.976-43.775C376.771,369.173,380.844,347.8,380.844,347.8"/>
<path fill="#D5EEF7" d="M189.973,258.212c0,0,0.683,10.861,5.776,20.358c0,0,4.066-5.085,6.789-7.801c0,0,2.876,11.448,7.462,16.289
	c0,0,5.081-6.108,8.481-12.897c0,0,3.393,8.144,7.124,11.539c0,0,4.418-6.788,6.785-14.59c0,0,7.807-3.734,11.541-6.445
	C243.931,264.665,218.48,267.715,189.973,258.212"/>
<path fill="#4E4D50" d="M172.325,217.158c0,0,11.881,0.679,29.185,0.341c17.305-0.341,51.584-2.042,60.065,4.41
	c0,0-9.505,7.459-12.555,9.495c-2.039,1.02-0.681,5.098,0.335,7.468c1.02,2.373,4.75,7.803,5.431,10.519c0,0-16.963,1.016-30.541,0
	C210.676,248.369,174.363,239.551,172.325,217.158"/>
<path fill="none" stroke="#4E4D50" stroke-width="1.787" stroke-miterlimit="10" d="M172.325,217.158c0,0,11.881,0.679,29.185,0.341
	c17.305-0.341,51.584-2.042,60.065,4.41c0,0-9.505,7.459-12.555,9.495c-2.039,1.02-0.681,5.098,0.335,7.468
	c1.02,2.373,4.75,7.803,5.431,10.519c0,0-16.963,1.016-30.541,0C210.676,248.369,174.363,239.551,172.325,217.158z"/>
<path fill="#64C2DE" d="M236.188,350.238c0,0,10.908,4.411,30.583,16.449c0,0,4.802-4.062,10.655-12.107
	c6.388-7.505,11.483-19.637,11.483-19.637s-9.201,13.085-25.918,16.99C246.768,355.711,236.188,350.238,236.188,350.238"/>
<path fill="#64C2DE" d="M323.122,480.114c4.74-5.793,14.224-24.752,20.013-36.34c5.794-11.587,12.642-23.702,12.642-23.702
	c-8.426,3.688-17.911,9.486-17.911,9.486c3.162-9.486,15.804-28.441,27.915-45.297c12.111-16.854,16.327-38.972,16.327-38.972
	c-5.787,18.261-29.319,36.509-29.319,36.509c0.706-4.562,0.909-11.341,0.909-11.341c-2.514,2.233-4.964,4.412-7.226,6.426
	c-9.515,8.456-21.423,22.474-21.423,22.474c-1.054-4.213-1.054-13.691-1.054-13.691s-20.9,18.079-25.661,25.82
	c-4.769,7.742-17.881,36.337-17.881,36.337l-0.59-20.85c0,0-7.147,38.717-12.509,40.95c-5.361,2.234-7.745,3.728-14.894-1.188
	c0,0,10.426,9.617,18.021,12.063c4.609,1.486,15.189,1.19,27.993,1.19S323.122,480.114,323.122,480.114"/>
<path fill="#D5EEF7" d="M187.208,158.935c0,0,1.326-6.852,10.198-8.663c9.074-1.875,13.92,4.98,13.92,4.98s-6.521-2-13.023-0.813
	C192.178,155.556,187.246,158.916,187.208,158.935"/>
<path fill="#D5EEF7" d="M185.637,151.593c0,0,1.016-8.423,8.949-11.603c11.937-4.787,17.713,5.896,17.713,5.896
	s-7.892-3.323-14.613-1.917C190.303,145.5,185.637,151.593,185.637,151.593"/>
<path fill="#CDECF5" d="M293.252,175.506c-0.052-0.058-3.794-8.793-16.291-9.959c0,0,4.449-4.566,10.884-1.229
	C293.461,167.217,293.252,175.506,293.252,175.506"/>
<path fill="#D5EEF7" d="M298.484,165.232c0,0-1.226-3.401-6.527-6.388c-3.093-1.743-7.741-3.124-11.441-2.716
	c0,0,5.798-5.496,13.25-0.908C299.329,158.639,298.484,165.232,298.484,165.232"/>
<path fill="#737F84" d="M263.096,181.573c-4.377,9.965-3.039,24.479,5.047,24.606c9.818,0.156,13.254-13.377,12.188-23.602
	L263.096,181.573z"/>
<path fill="#737F84" d="M190,171.389c-5.486,12.322-3.916,24.012,4.083,25.307c9.159,1.477,14.891-11.682,14.901-21.963L190,171.389
	z"/>
<path fill="#FFFFFF" d="M188.304,179.422c0.08-7.772,4.404-13.525,10.551-14.832c6.157-1.302,10.753,6.7,10.138,13.111
	c-0.6,6.398-5.64,14.828-12.885,14.19C188.889,191.249,188.283,182.145,188.304,179.422"/>
<path fill="#161616" d="M191.49,180.446c0.024-2.669,1.505-4.635,3.618-5.089c2.111-0.445,3.683,2.301,3.478,4.494
	c-0.209,2.194-1.938,5.096-4.43,4.869C191.689,184.506,191.479,181.378,191.49,180.446"/>
<path fill="#FFFFFF" d="M261.55,190.654c-0.366-7.761,3.521-14.913,9.599-16.561c6.06-1.65,9.548,5.832,9.312,12.26
	c-0.246,6.424-5.89,15.481-12.157,14.495C262.939,200.01,261.676,193.381,261.55,190.654"/>
<path fill="#161616" d="M264.154,189.838c-0.126-2.806,1.277-5.395,3.469-5.99c2.191-0.59,3.456,2.109,3.371,4.435
	c-0.09,2.321-2.135,5.596-4.39,5.239C264.664,193.223,264.203,190.817,264.154,189.838"/>
<path fill="#4E4D50" d="M303.762,183.224c-1.867-0.576-10.792-3.304-25.039-5.317c-14.248-2.016-25.04-0.866-31.228-0.433
	c-6.192,0.433-6.046,0.286-12.81-1.298c-6.761-1.583-23.312-6.477-44.619-9.932c-21.295-3.447-35.542-2.301-35.542-2.301
	s-20.3-21.734-24.327-25.186c-0.867,8.925-3.176,13.812-3.176,13.812s24.505,21.639,25.653,22.354
	c1.152,0.72,1.585,0.718,3.746,2.443c2.152,1.732,2.306,4.46,2.446,9.64c0.147,5.187-0.294,8.928,3.742,10.798
	c4.027,1.866,14.251,4.463,25.757,6.333c11.519,1.869,25.913,0.861,30.081-0.864c4.177-1.732,7.772-7.771,9.786-10.793
	c2.021-3.022,3.889-6.767,5.183-7.919c1.295-1.146,4.607-0.86,7.487-0.29c2.875,0.577,2.16,1.873,2.411,3.565
	c0.206,1.289-1.431,14.101,2.744,17.412c4.174,3.309,9.639,5.041,24.892,6.043c15.26,1.006,18.564-1.578,20.443-4.317
	c2.114-3.103,4.599-8.345,5.321-9.928c0.717-1.588,1.438-2.592,3.021-3.167c1.58-0.572,2.735-1.151,3.165-2.449
	c0.429-1.293,1.011-2.875,1.585-4.602C305.061,185.097,305.639,183.805,303.762,183.224 M228.525,183.988
	c-0.867,2.026-5.04,11.517-8.636,14.688c-3.602,3.162-5.04,3.882-12.955,4.027c-7.913,0.147-23.888-1.441-32.384-3.881
	c-8.494-2.448-12.228-3.453-12.661-6.768c-0.433-3.316,1.005-17.124,1.585-19.859c0.576-2.738,3.588-3.885,5.175-4.031
	c3.589-0.33,20.296,0.58,27.633,1.727c7.338,1.149,26.054,5.609,30.082,7.771C230.393,179.818,229.387,181.976,228.525,183.988
	 M297.887,186.87c-0.571,2.737-6.906,17.843-8.774,19.429c-1.874,1.582-7.34,3.313-16.979,2.881c-9.646-0.43-18.714-2.16-21.447-3.6
	c-2.729-1.439-3.453-2.303-3.743-8.06c-0.285-5.756,0.29-9.641,1.293-12.659c1.011-3.027,5.472-4.9,15.402-4.754
	c3.599,0.055,16.117,0.14,24.32,1.585C296.158,183.129,298.468,184.136,297.887,186.87"/>
<path fill="none" stroke="#4E4D50" stroke-width="1.787" stroke-miterlimit="10" d="M303.762,183.224
	c-1.867-0.576-10.792-3.304-25.039-5.317c-14.248-2.016-25.04-0.866-31.228-0.433c-6.192,0.433-6.046,0.286-12.81-1.298
	c-6.761-1.583-23.312-6.477-44.619-9.932c-21.295-3.447-35.542-2.301-35.542-2.301s-20.3-21.734-24.327-25.186
	c-0.867,8.925-3.176,13.812-3.176,13.812s24.505,21.639,25.653,22.354c1.152,0.72,1.585,0.718,3.746,2.443
	c2.152,1.732,2.306,4.46,2.446,9.64c0.147,5.187-0.294,8.928,3.742,10.798c4.027,1.866,14.251,4.463,25.757,6.333
	c11.519,1.869,25.913,0.861,30.081-0.864c4.177-1.732,7.772-7.771,9.786-10.793c2.021-3.022,3.889-6.767,5.183-7.919
	c1.295-1.146,4.607-0.86,7.487-0.29c2.875,0.577,2.16,1.873,2.411,3.565c0.206,1.289-1.431,14.101,2.744,17.412
	c4.174,3.309,9.639,5.041,24.892,6.043c15.26,1.006,18.564-1.578,20.443-4.317c2.114-3.103,4.599-8.345,5.321-9.928
	c0.717-1.588,1.438-2.592,3.021-3.167c1.58-0.572,2.735-1.151,3.165-2.449c0.429-1.293,1.011-2.875,1.585-4.602
	C305.061,185.097,305.639,183.805,303.762,183.224z M228.525,183.988c-0.867,2.026-5.04,11.517-8.636,14.688
	c-3.602,3.162-5.04,3.882-12.955,4.027c-7.913,0.147-23.888-1.441-32.384-3.881c-8.494-2.448-12.228-3.453-12.661-6.768
	c-0.433-3.316,1.005-17.124,1.585-19.859c0.576-2.738,3.588-3.885,5.175-4.031c3.589-0.33,20.296,0.58,27.633,1.727
	c7.338,1.149,26.054,5.609,30.082,7.771C230.393,179.818,229.387,181.976,228.525,183.988z M297.887,186.87
	c-0.571,2.737-6.906,17.843-8.774,19.429c-1.874,1.582-7.34,3.313-16.979,2.881c-9.646-0.43-18.714-2.16-21.447-3.6
	c-2.729-1.439-3.453-2.303-3.743-8.06c-0.285-5.756,0.29-9.641,1.293-12.659c1.011-3.027,5.472-4.9,15.402-4.754
	c3.599,0.055,16.117,0.14,24.32,1.585C296.158,183.129,298.468,184.136,297.887,186.87z"/>
<path fill="#4E4D50" d="M200.746,54.027c-0.932-0.594-3.814-2.63-3.814-2.63C169.959,34.093,167.92,3.043,167.92,3.043
	s-13.235,14.254-12.216,36.138c1.02,21.887,19.854,38.173,19.854,38.173c-7.638,4.839-13.998,6.87-13.998,6.87
	s17.537,0.371,29.517-12.217C199.473,63.19,201.322,54.396,200.746,54.027"/>
<path fill="#737F84" d="M200.746,54.027c-0.887-0.584-3.814-2.63-3.814-2.63C169.959,34.093,167.92,3.043,167.92,3.043
	s-15.541,39.767,25.57,66.22C193.49,69.263,199.242,63.798,200.746,54.027"/>
<path fill="#D5EEF7" d="M76.699,180.021c0,0-33.638,4.721-52.663,21.793c13.252,2.439,49.267,23.301,49.267,23.301L76.699,180.021z"
	/>
<path fill="#B2E1EF" d="M118.335,409.25c1.111,1.309,7.869,5.537,9.892,7.129c1.044-3.4,2.246-17.258,1.6-21.654
	c-1.553-10.576-3.664-16.201-12.684-24.93c-5.61-5.428-17.566-9.778-20.541-19.86c1.743,0.978,6.425,2.968,12.638,1.599
	c-3.699-3.304-16.113-25-15.041-37.16c1.223,3.543,5.347,6.994,6.279,7.163c-1.635-14.507,3.978-42.46,9.479-60.675l-34.533-3.377
	l-0.083-20.009l-11.854-24.37c0,0,8.378,171.786,7.809,170.904C75.056,385.65,105.506,401.875,118.335,409.25 M99.809,408.939
	c0.283-0.968,0.635-1.836,1.047-2.605L99.809,408.939z"/>
<path fill="#D5EEF7" d="M121.476,432.693c-1.953-6.912-2.074-18.164-2.414-23.156c-0.09-1.351-1.226-16.933-2.6-21.008
	c-2.798-8.297-6.464-12.035-14.436-21.381c-10.797-12.654-18.48-32.576-15.13-70.595c1.184,3.427,5.175,6.765,6.073,6.93
	c1.66-15.757,9.251-26.714,17.889-44.453l-31.263-26.843l-0.08-19.356l-3.17-22.624c0,0-23.56,1.897-43.458,20.372
	c-17.434,16.212-22.54,32.167-22.54,32.167s7.811-4.679,14.643-5.341c0,0-0.081,0.066-0.216,0.188
	C4.48,254.162-5.912,310.59,3.502,355.73c3.558-4.561,6.732-15.687,6.732-15.687c2.506,12.658,3.074,32.402,2.792,46.054
	c2.42-2.237,5.94-5.03,6.055-6.348c3.057,3.652,5.218,26.163,3.926,33.336c-0.694,3.843-0.551,8.019,0.38,12.279
	c2.843,18.74,19.036,40.033,26.485,41.34c-0.341-0.702-0.636-1.409-0.896-2.098c4.387,1.283,10.017,4.721,11.79,3.471
	c0,0-4.466-7.625-8.774-16.973c2.173,7.784,10.171,15.412,32.113,20.404c0.037-4.077-4.568-15.793-8.716-25.492
	c5.087,7.124,9.749,9.501,11.724,10.923c-0.015-0.684-1.646-4.645,0.046-3.46c5.499,3.844,15.74,9.326,17.412,7.996
	c2.707-20.812-21.206-47.428-14.39-53.898c6.814-6.469-1.171,13.055,14.828,18.607c-0.132,0.043-3.841,1.294-3.841,1.294
	S105.456,431.576,121.476,432.693 M90.436,406.627c0.275-0.936,0.614-1.777,1.014-2.521L90.436,406.627z"/>
<path fill="#B2E1EF" d="M79.005,454.77c-1.674-4.352-6.726-17.62-6.811-17.836c-0.04-0.131-0.083-0.248-0.126-0.381
	c-0.504,2.09-0.782,3.993-0.782,3.993c0.43,0.522-5.759-8.989-6.043-20.177c-1.944,2.591-0.717,10.67,0.79,17.869
	c0.558-1.479,1.41-3.848,1.41-3.848C67.604,440.021,75.834,451.342,79.005,454.77 M72.881,438.908
	c-0.212-0.608-0.44-1.263-0.682-1.973C72.215,436.982,72.541,437.844,72.881,438.908"/>
<path fill="#B2E1EF" d="M51.992,451.105c0,0-1.685-4.289-1.974-6.678c-1.256,1.959-1.279,3.171-1.279,3.171
	s-4.468-15.185-3.535-18.195c-1.311,1.639-1.44,10.872,1.882,18.989c1.085,2.659,5.374,8.115,8.133,9.381
	C53.968,455.184,51.992,451.105,51.992,451.105"/>
<path fill="#00598E" d="M301,208.718c-24.441,54.599,2.48,109.931,52.134,132.158c49.655,22.228,111.887,3.096,135.683-50.062
	c23.795-53.156-6.551-96.418-12.422-103.745c-6.852-9.003-12.338-14.427-19.157-27.372c-3.099-6.334-4.843-14.039,0.078-28.902
	c-11.384,5.54-24.854,11.875-33.178,13.344c-13.345,2.188-24.847,0.255-38.81,2.165C376.891,147.472,325.441,154.118,301,208.718z"
	/>
<path fill="#FFFFFF" d="M344.8,281.718c3.297,1.476,5.242,2.101,8.1,5.111c2.856,3.01,5.089,7.965,6.435,11.041
	c1.344,3.073,1.018,4.906-0.957,6.003c-1.975,1.095-2.748-0.489-4.96-4.942c-2.211-4.453-3.372-7.938-10.583-11.166
	c-7.21-3.228-9.645-1.104-12.287,0.928c-2.641,2.034-3.031,2.354-4.105,0.885c-1.278-1.563-1.549-3.168,0.197-4.859
	c1.747-1.691,4.848-4.755,8.059-5.297C337.908,278.881,341.503,280.242,344.8,281.718L344.8,281.718z"/>
<path fill="#FFFFFF" d="M368.487,320.517c0.802-0.136,0.595-0.229,1.831,0.325c1.237,0.554,1.785,1.54,2.445,2.826
	c0.662,1.284,0.151,3.53-1.936,4.327c-12.756,4.183-27.519-3.169-38.184-9.18c-10.664-6.011-17.19-16.846-17.76-18.337
	c-0.797-2.089,0.168-3.14,0.744-3.872c0.575-0.731,1.953-1.6,3.16,0.675c2.737,4.934,10.349,12.793,23.534,18.696
	C355.509,321.88,362.891,321.968,368.487,320.517L368.487,320.517z"/>
<path fill="#0073BA" d="M453.975,330.095l2.01,0.987c13.774-9.795,25.291-23.3,32.888-40.27
	c23.796-53.157-6.642-96.214-12.421-103.747c-6.852-9.002-12.338-14.426-19.156-27.371c-3.398-6.22-4.844-14.04,0.077-28.901
	c-11.384,5.539-24.946,12.081-33.178,13.342c-13.345,2.188-25.052,0.163-38.809,2.165c-3.805,0.528-16.353,2.17-31.225,8.816
	c-1.121,1.38-2.573,3.069-4.454,5.14c-9.746,10.723-10.904,23.808-11.361,32.012c-0.457,8.203-0.304,44.877,59.34,111.641
	c11.036,12.36,12.723,16.331,28.289,23.545C439.067,333.563,447.895,332.072,453.975,330.095z"/>
<path fill="#004975" d="M354.161,155.116c-18.116,8.096-39.682,23.616-53.104,53.601c-24.439,54.598,2.48,109.932,52.133,132.158
	c33.8,15.13,73.43,11.093,102.795-9.793c13.774-9.795,25.291-23.3,32.888-40.27c23.796-53.157-6.642-96.214-12.421-103.747
	c-6.852-9.002-12.338-14.426-19.156-27.371c-3.398-6.22-4.844-14.04,0.077-28.901c-11.384,5.539-24.946,12.081-33.178,13.342
	c-13.345,2.188-25.052,0.163-38.809,2.165C381.581,146.828,369.033,148.47,354.161,155.116z M385.381,148.01
	c0,0,0.237-0.031,0.247-0.034c6.604-0.96,12.852-0.978,18.894-0.994c6.386-0.018,12.988-0.035,19.929-1.172
	c7.778-1.193,19.747-6.754,30.177-11.803c-3.939,14.038-1.672,21.276,1.169,26.477c5.241,9.949,9.765,15.592,14.552,21.566
	c1.528,1.905,3.108,3.876,4.76,6.047c3.415,4.449,11.905,16.69,17.02,34.209c6.694,22.929,5.079,45.744-4.801,67.814
	c-11.092,24.779-31.391,43.384-57.156,52.393c-12.235,4.279-25.059,6.195-38.113,5.699c-13.291-0.506-26.135-3.492-38.175-8.883
	c-24.336-10.893-43.151-29.734-52.983-53.053c-4.974-11.796-7.429-24.238-7.297-36.984c0.14-13.437,3.168-26.856,9-39.884
	c10.051-22.454,25.845-39.342,46.943-50.199C353.65,157.096,366.144,150.667,385.381,148.01z"/>
<path fill="#93C5E4" d="M450.943,143.496l-1.949,8.772l20.674,34.481c0,0,18.664,22.947,22.506,34.807
	c3.842,11.86,3.25,19.261,0.31,21.408c-2.938,2.146-8.892-0.023-18.374-11.44c-9.481-11.417-20.805-28.109-26.836-43.917
	c-6.032-15.809-5.033-20.803-4.019-23.068c0.829-1.854,2.96-1.643,3.329-2.467c0.093-0.206,0.051-1.215-0.932-2.891
	c-2.189-3.948-1.006-9.354-0.176-11.208c0.83-1.854,2.355-6.365,9.021-13.521"/>
<path fill="#FFFFFF" d="M454.59,134.247c-3.564,4.092-5.637,7.615-7.828,13.066c-2.192,5.447,1.277,10.959,1.938,12.243
	c0.661,1.286,4.066,5.282,4.819,6.362c0.754,1.079,0.363,1.398-0.554,1.236c-1.833-0.326-3.14-0.169-3.785,1.273
	c-0.554,1.235-1.134,4.191,1.277,10.959c4.481,12.641,8.677,20.948,19.658,36.746c10.982,15.799,18.357,18.11,19.159,17.976
	c0.803-0.136,4.723-0.606,3.754-6.729c-3.178-19.973-17.749-39.354-21.908-44.432c-1.598-1.953-8.727-10.337-14.862-21.492
	C452.633,154.64,450.356,148.675,454.59,134.247L454.59,134.247z"/>
<path fill="#FFFFFF" d="M433.896,304.784c-3.853,9.158-9.896,14.367-18.012,15.928c-5.32,0.834-9.859,1.027-22.221-4.506
	c-20.398-9.131-35.013-46.094-47.147-51.031c-9.662-3.831-34.827,12.605-42.521,9.901c-5.952-2.171-7.844-6.231-9.562-15.655
	c-1.716-9.425,1.39-21.886,4.248-28.271c2.859-6.389,10.54-15.811,20.841-11.199c9.684,4.334,20.424,33.379,30.633,38.198
	c12.063,5.647,39.543-10.988,63.557,0.009C432.576,266.848,440.884,288.621,433.896,304.784L433.896,304.784z"/>
<path fill="none" d="M354.161,155.116c-18.116,8.096-39.682,23.616-53.104,53.601c-24.439,54.598,2.48,109.932,52.133,132.158
	c33.8,15.13,73.43,11.093,102.795-9.793l-2.01-0.987c-6.08,1.978-14.907,3.469-28-2.642c-15.566-7.214-17.253-11.185-28.289-23.545
	c-59.644-66.764-59.797-103.438-59.34-111.641c0.457-8.204,1.615-21.289,11.361-32.012
	C351.588,158.186,353.04,156.496,354.161,155.116z"/>
<path fill="#ECF8FF" d="M516.732,275.577c2.086,1.579,5.631,5.426,5.631,5.426s-0.103-2.732-2.114-8.154
	c-2.007-5.43-7.368-9.049-17.193-11.896c-4.311-1.244-1.612-1.382-5.76-1.266l-0.316,1.743l-2.124,9.017
	c-2.693,3.389-8.364,3.4-12.39,3.374c1.062,0.565,2.153,1.153,3.148,1.688c-10.78,2.202-25.713,3.312-29.197,8.628
	c-0.215,2.241,10.76,7.556,17.467,9.854c2.062,0.707-2.469,1.768-3.096,2.172c3.662,1.202,6.92,2.438,9.147,3.009
	c2.088,0.535,4.191,1.023,6.233,1.463c-2.028-0.171-3.936-0.241-5.764-0.25l0.062-0.014c0,0-20.977,0.004-27.698,4.027
	c1.205,0.158,2.367,0.405,3.429,0.669c-3.909,1.396-7.334,2.653-10.774,2.988c-3.34,10.155,31.327,18.963,31.327,18.963
	c-16.062-2.232-35.223-9.051-35.223-9.051c-1.041,2.027-0.219,5.956,1.925,10.198c-0.786-0.143-1.602-0.317-2.416-0.543
	c2.92,7.95,12.144,13.211,16.35,15.26c0.03,0.016,0.065,0.031,0.097,0.045c1.238,0.603,2.039,0.926,2.039,0.926l-0.029-0.039
	c1.937,0.761,3.955,1.263,6.051,1.356c5.685,0.249,9.527-1.938,12.107-4.766c0.081,1.035,0.127,2.155,0.091,3.296
	c4.099-4.86,4.969-12.145,5.154-14.717c3.25-0.645,5.878-1.838,8-3.234c-0.187,1.166-0.446,2.448-0.821,3.729
	c4.913-3.485,7.55-9.782,8.518-12.521c0.552,2.545,0.64,6.015,0.64,6.015c5.068-9.197,3.29-19.417,3.29-19.417
	s8.051-4.583,12.421-11.473c0.357,1.048,0.702,2.204,0.958,3.401c2.027-4.112,2.114-9.04,1.842-12.42
	C517.878,279.628,517.129,276.793,516.732,275.577"/>
</svg>
